<svg xmlns="http://www.w3.org/2000/svg" width="105.365" height="129.014" viewBox="0 0 105.365 129.014"><defs><style>.a{fill:#fff;}.b{fill:#272727;}.c{fill:#3c7c6f;stroke:#fff;stroke-linecap:round;stroke-miterlimit:10;stroke-width:3px;}</style></defs><g transform="translate(-145.316 -8225.589)"><g transform="translate(145.316 8225.589)"><path class="a" d="M467.635,388.957l-8.13-1.019L449.272,355.9l9.937-.546,6.9,19.06Z" transform="translate(-449.272 -318.713)"/><path class="a" d="M498.818,377.522l-11.442-.954-2.639-45.5h10.012Z" transform="translate(-467.829 -306.007)"/><path class="a" d="M622.272,388.674l12.4-2.384,10.489-30.036-10.489-1.135Z" transform="translate(-539.792 -318.589)"/><path class="a" d="M558.715,379.13H547.272l.221-48.63h10.744Z" transform="translate(-500.549 -305.708)"/><path class="a" d="M527.772,354.823l-11.919-.95L512.737,284.5h10.744Z" transform="translate(-482.479 -281.639)"/><path class="a" d="M607.179,349.538l7.373-1.43,3.116-69.608H606.924l-1.652,33.85Z" transform="translate(-530.897 -278.5)"/><path class="a" d="M586.679,360.433l-11.919.954L569.737,297.5h10.744Z" transform="translate(-512.304 -288.441)"/><path class="a" d="M507.03,432.128c15-.952,48.868-7.628,48.868-7.628l-7.037,59.406s-24.906-7.334-38.494-7.148-43.147,5.907-43.147,5.907l-6.2-58.165S492.012,433.082,507.03,432.128Z" transform="translate(-455.42 -354.892)"/></g><g transform="translate(182.388 8314.995)"><rect class="b" width="31" height="22" rx="4.827" transform="translate(0.11 -0.2)"/><ellipse class="a" cx="4.5" cy="5" rx="4.5" ry="5" transform="translate(11.11 5.8)"/><circle class="a" cx="1.46" cy="1.46" r="1.46" transform="translate(23.618 3.757)"/><line class="c" x2="5.207" transform="translate(2.592 3.323)"/></g></g></svg>